<?xml version="1.0" encoding="UTF-8"?><svg id="Layer_2" xmlns="http://www.w3.org/2000/svg" viewBox="0 0 424.41 202.94"><defs><style>.cls-1{fill-rule:evenodd;}.cls-1,.cls-2{fill:#005bab;}</style></defs><g id="Layer_1-2"><g><path class="cls-2" d="M46.32,34.79c4.68-1.8,8.51-7.22,8.51-14.37C54.83,8.08,45.68,1.7,30.25,1.7H0V73.22H35.25c14.37,0,22.99-9.15,22.99-21.5,0-7.13-3.53-14.91-11.92-16.93h0ZM10.21,11.92H31.84c8.09,0,12.78,2.87,12.78,8.95s-4.69,8.92-12.78,8.92H10.21V11.92h0Zm0,28.1h23.34c8.83,0,14.47,3.62,14.47,11.5s-5.63,11.49-14.47,11.49H10.21v-22.99h0Zm0,22.99h0Z"/><path class="cls-2" d="M85.57,11.92h37.41V1.7h-47.62V73.22h47.62v-10.21l-37.41-.04V11.92h0Zm28.45,30.65v-10.08h-26.15v10.08h26.15Z"/><polygon class="cls-2" points="176.8 0 142.74 73.22 153.81 73.22 160.73 57.9 160.76 57.9 176.8 22.57 192.84 57.9 192.87 57.9 199.79 73.22 210.86 73.22 176.8 0 176.8 0"/><path class="cls-2" d="M275.45,1.71V45.12c0,11.07-6.38,18.73-17.03,18.73s-17.03-7.66-17.03-18.73V1.71h-10.21V41.72c0,18.84,8.08,32.34,27.24,32.34s27.24-13.51,27.24-32.34V1.71h-10.21Z"/><path class="cls-2" d="M356.84,11.74V1.7h-47.68V11.74h47.68Zm-18.74,61.48V9.65h-10.21v63.57h10.21Z"/><path class="cls-2" d="M387,11.92h37.41V1.7h-47.62V73.22h47.62v-10.21l-37.41-.04V11.92h0Zm28.45,30.65v-10.08h-26.14v10.08h26.14Z"/></g><g><polygon class="cls-1" points="108.94 130.67 117.38 130.67 146.91 181.77 146.91 130.67 156.2 130.67 156.2 202.28 148.12 202.28 118.19 150.55 118.19 202.28 108.94 202.28 108.94 130.67"/><rect class="cls-2" x="75.92" y="130.67" width="9.5" height="71.61"/><rect class="cls-2" x="247.98" y="130.67" width="9.5" height="71.61"/><polygon class="cls-2" points="314.55 130.01 280.63 202.94 291.66 202.94 298.55 187.67 298.58 187.67 314.55 152.49 330.53 187.67 330.56 187.67 337.45 202.94 348.48 202.94 314.55 130.01 314.55 130.01"/><path class="cls-2" d="M186.33,130.47c11.7,.06,20.82,3.37,27.37,9.95,7.17,7.23,10.76,15.92,10.76,26.06s-3.59,18.86-10.76,26.06c-6.54,6.57-15.66,9.89-27.37,9.95h-6.84v-72.02h6.84Zm2.48,9.5v53.06c7.41,0,13.49-2.38,18.23-7.16,5.34-5.34,8.01-11.8,8.01-19.4s-2.67-14.03-8.01-19.4c-4.74-4.74-10.82-7.11-18.23-7.11Z"/></g></g></svg>