<?xml version="1.0" encoding="UTF-8"?>
<!DOCTYPE svg PUBLIC "-//W3C//DTD SVG 1.1//EN" "http://www.w3.org/Graphics/SVG/1.1/DTD/svg11.dtd">
<!-- Creator: CorelDRAW 2019 (64-Bit) -->
<svg xmlns="http://www.w3.org/2000/svg" xml:space="preserve" width="3.2569in" height="1.77257in" version="1.1" shape-rendering="geometricPrecision" text-rendering="geometricPrecision" image-rendering="optimizeQuality" fill-rule="evenodd" clip-rule="evenodd"
viewBox="0 0 3324.69 1809.47"
 xmlns:xlink="http://www.w3.org/1999/xlink"
 xmlns:xodm="http://www.corel.com/coreldraw/odm/2003">
 <g id="Layer_x0020_1">
  <metadata id="CorelCorpID_0Corel-Layer"/>
  <g id="_1815223982224">
   <path fill="#0C54A0" fill-rule="nonzero" d="M362.9 272.54c36.63,-14.11 66.64,-56.59 66.64,-112.56 0,-96.66 -71.73,-146.63 -192.55,-146.63l-236.99 0 0 560.24 276.16 0c112.57,0 180.1,-71.73 180.1,-168.39 0,-55.82 -27.61,-116.76 -93.35,-132.66l0 0zm-282.91 -179.2l169.45 0c63.34,0 100.11,22.51 100.11,70.09 0,48.33 -36.77,69.94 -100.11,69.94l-169.45 0 0 -140.02zm0 220.16l182.81 0c69.2,0 113.31,28.36 113.31,90.05 0,61.68 -44.11,90.04 -113.31,90.04l-182.81 0 0 -180.1zm0 180.1l-9.44 0 9.44 0z"/>
   <path fill="#0C54A0" fill-rule="nonzero" d="M670.33 93.34l293.07 0 0 -79.99 -373.06 0 0 560.24 373.06 0 0 -79.99 -293.07 -0.3 0 -399.96zm222.86 240.12l0 -78.94 -204.82 0 0 78.94 204.82 0z"/>
   <polygon fill="#0C54A0" fill-rule="nonzero" points="1385,0 1118.17,573.59 1204.91,573.59 1259.09,453.53 1259.38,453.53 1385,176.79 1510.62,453.53 1510.91,453.53 1565.09,573.59 1651.83,573.59 "/>
   <path fill="#0C54A0" fill-rule="nonzero" d="M2157.8 13.35l0 340.07c0,86.75 -49.98,146.78 -133.43,146.78 -84.19,0 -133.42,-60.03 -133.42,-146.78l0 -340.07 -79.99 0 0 313.51c0,147.53 63.33,253.33 213.41,253.33 146.77,0 213.41,-105.8 213.41,-253.33l0 -313.51 -79.98 0z"/>
   <path fill="#0C54A0" fill-rule="nonzero" d="M2795.37 91.99l0 -78.64 -373.55 0 0 78.64 373.55 0zm-146.77 481.6l0 -498.03 -80.01 0 0 498.03 80.01 0z"/>
   <path fill="#0C54A0" fill-rule="nonzero" d="M3031.62 93.34l293.07 0 0 -79.99 -373.06 0 0 560.24 373.06 0 0 -79.99 -293.07 -0.3 0 -399.96zm222.88 240.12l0 -78.94 -204.83 0 0 78.94 204.83 0z"/>
  </g>
  <g id="_1815223502656">
   <polygon fill="#0C54A0" fill-rule="nonzero" points="523.94,1804.92 523.94,1244.02 601.78,1244.02 601.78,1732.06 868.24,1732.06 868.24,1804.92 "/>
   <path fill="#0C54A0" fill-rule="nonzero" d="M1434.99 1244.02l81.65 0 0 395.07c-7.1,45.11 -27.89,83.27 -62.48,114.27 -41.84,37.45 -92.24,56.11 -151.23,56.11 -58.87,0 -109.27,-18.66 -150.97,-55.88 -41.84,-37.33 -62.62,-82.2 -62.62,-134.84l0 -374.73 81.65 0 0 374.73c0,32.3 12.87,59.94 38.62,82.91 25.87,23.1 56.98,34.58 93.32,34.58 36.73,0 67.84,-11.49 93.59,-34.34 25.61,-22.97 38.48,-50.61 38.48,-83.16l0 -374.73z"/>
   <polygon fill="#0C54A0" fill-rule="nonzero" points="1737.73,1804.92 1926.95,1498.86 1769.34,1244.02 1858.87,1244.02 1971.78,1426.72 2085.45,1244.02 2174.98,1244.02 2016.49,1498.86 2206.58,1804.92 2117.05,1804.92 1971.78,1571.13 1827.27,1804.92 "/>
   <path fill="#0C54A0" fill-rule="nonzero" d="M2507.67 1324.01l293.07 0 0 -79.99 -373.06 0 0 560.24 373.06 0 0 -79.99 -293.07 -0.3 0 -399.96zm222.87 240.12l0 -78.94 -204.83 0 0 78.94 204.83 0z"/>
  </g>
 </g>
</svg>
