<?xml version="1.0" encoding="UTF-8"?><svg id="Layer_2" xmlns="http://www.w3.org/2000/svg" viewBox="0 0 642.25 192.66"><defs><style>.cls-1{fill:#0055a5;}</style></defs><g id="Layer_1-2"><g><path class="cls-1" d="M20.82,158.08c-4.65-1.57-8.42-3.79-11.31-6.67-2.89-2.89-4.33-6.48-4.33-10.74s1.5-7.79,4.49-10.81c3-3.01,6.65-4.51,10.91-4.51s7.84,1.49,10.85,4.47c1.7,1.64,3.11,4.26,4.26,7.85l-7.71,3.03c-.94-2.51-1.78-4.15-2.55-4.92-1.35-1.32-2.96-1.98-4.85-1.98s-3.55,.67-4.88,1.99c-1.35,1.33-2.02,2.96-2.02,4.88s.67,3.53,2.02,4.88c1.5,1.49,3.59,2.83,6.24,4.06,5.14,1.67,9.52,4.3,13.11,7.89,4.02,3.97,6.03,8.79,6.03,14.45s-2,10.5-6.01,14.52c-4.01,4.01-8.83,6.01-14.48,6.01s-10.5-2.02-14.49-6.04c-3.2-3.2-5.23-7.63-6.07-13.26l8.24-3c.53,4.85,1.8,8.29,3.83,10.3,2.36,2.35,5.19,3.53,8.5,3.53s6.15-1.18,8.51-3.53c2.35-2.36,3.53-5.2,3.53-8.54s-1.18-6.16-3.53-8.51c-2.24-2.24-5.01-4.04-8.26-5.37h0Z"/><path class="cls-1" d="M142.01,134.92h35.15v-9.59h-44.74v67.19h44.74v-9.59l-35.15-.04v-47.97h0Zm26.73,28.8v-9.47h-24.57v9.47h24.57Z"/><path class="cls-1" d="M299.15,134.76v-9.43h-44.8v9.43h44.8Zm-17.6,57.76v-59.73h-9.59v59.73h9.59Z"/><path class="cls-1" d="M426.84,134.92h35.15v-9.59h-44.75v67.19h44.75v-9.59l-35.15-.04v-47.97h0Zm26.73,28.8v-9.47h-24.57v9.47h24.57Z"/><path class="cls-1" d="M584.63,134.76v-9.43h-44.8v9.43h44.8Zm-17.61,57.76v-59.73h-9.6v59.73h9.6Z"/><path class="cls-1" d="M622.01,158.08c-4.66-1.57-8.43-3.79-11.32-6.67-2.89-2.89-4.33-6.48-4.33-10.74s1.5-7.79,4.49-10.81c3-3.01,6.64-4.51,10.9-4.51s7.84,1.49,10.85,4.47c1.7,1.64,3.11,4.26,4.26,7.85l-7.71,3.03c-.94-2.51-1.78-4.15-2.55-4.92-1.35-1.32-2.96-1.98-4.85-1.98s-3.54,.67-4.88,1.99c-1.34,1.33-2.02,2.96-2.02,4.88s.67,3.53,2.02,4.88c1.5,1.49,3.59,2.83,6.24,4.06,5.14,1.67,9.52,4.3,13.11,7.89,4.02,3.97,6.03,8.79,6.03,14.45s-2.01,10.5-6.01,14.52c-4.01,4.01-8.83,6.01-14.48,6.01s-10.5-2.02-14.49-6.04c-3.2-3.2-5.23-7.63-6.07-13.26l8.24-3c.53,4.85,1.79,8.29,3.83,10.3,2.36,2.35,5.18,3.53,8.49,3.53s6.16-1.18,8.51-3.53c2.35-2.36,3.53-5.2,3.53-8.54s-1.18-6.16-3.53-8.51c-2.24-2.24-5.01-4.04-8.26-5.37h0Z"/><polygon class="cls-1" points="193.69 125.2 201.65 125.2 229.48 173.35 229.48 125.2 238.24 125.2 238.24 192.66 230.62 192.66 202.41 143.92 202.41 192.66 193.69 192.66 193.69 125.2 193.69 125.2"/><polygon class="cls-1" points="478.68 125.2 486.63 125.2 514.46 173.35 514.46 125.2 523.23 125.2 523.23 192.66 515.6 192.66 487.4 143.92 487.4 192.66 478.68 192.66 478.68 125.2 478.68 125.2"/><polygon class="cls-1" points="324.65 125.2 324.65 192.66 315.7 192.66 315.7 125.2 324.65 125.2 324.65 125.2"/><polygon class="cls-1" points="349.07 125.31 370.87 163 392.59 125.31 400.54 125.31 400.54 192.54 391.83 192.54 391.83 143.97 370.87 180.28 349.83 143.97 349.83 192.54 341.13 192.54 341.13 125.31 349.07 125.31 349.07 125.31"/><path class="cls-1" d="M109.4,175.77l6.33,5.67c-7.72,7.04-15.89,10.56-24.51,10.56-9.21,0-17.08-3.26-23.58-9.74-6.48-6.5-9.74-14.36-9.74-23.58s3.26-17.03,9.74-23.56c6.5-6.53,14.36-9.78,23.58-9.78,8.61,0,16.79,3.52,24.51,10.56l-6.33,5.75c-5.82-5.16-11.87-7.75-18.17-7.75-6.82,0-12.67,2.42-17.51,7.25-4.86,4.84-7.28,10.69-7.28,17.53s2.42,12.74,7.28,17.58c4.84,4.84,10.69,7.25,17.51,7.25,6.3,0,12.36-2.58,18.17-7.74h0Z"/></g><g><path class="cls-1" d="M136.92,31.89c4.39-1.69,7.99-6.79,7.99-13.5,0-11.59-8.6-17.59-23.09-17.59h-28.42V67.99h33.12c13.5,0,21.6-8.6,21.6-20.2,0-6.7-3.31-14-11.2-15.91h0ZM102.99,10.4h20.32c7.6,0,12.01,2.7,12.01,8.41s-4.41,8.39-12.01,8.39h-20.32V10.4h0Zm0,26.4h21.92c8.3,0,13.59,3.4,13.59,10.8s-5.29,10.8-13.59,10.8h-21.92v-21.6h0Zm0,21.6h0Z"/><path class="cls-1" d="M173.79,10.4h35.15V.8h-44.74V67.99h44.74v-9.59l-35.15-.04V10.4h0Zm26.73,28.8v-9.47h-24.56v9.47h24.56Z"/><polygon class="cls-1" points="257.7 0 225.69 68.8 236.1 68.8 242.6 54.4 242.63 54.4 257.7 21.21 272.76 54.4 272.8 54.4 279.3 68.8 289.7 68.8 257.7 0 257.7 0"/><path class="cls-1" d="M347.97,.41V41.19c0,10.41-5.99,17.6-16,17.6s-16-7.2-16-17.6V.41h-9.6V38.01c0,17.69,7.6,30.38,25.6,30.38s25.6-12.69,25.6-30.38V.41h-9.59Z"/><path class="cls-1" d="M419.44,10.23V.8h-44.8V10.23h44.8Zm-17.6,57.76V8.26h-9.59v59.73h9.59Z"/><path class="cls-1" d="M462.5,68.8v-29.14L436.31,0h10.93l13.41,20.74c2.47,3.88,4.77,7.75,6.9,11.65,2.05-3.61,4.51-7.66,7.43-12.16L488.14,0h10.48l-27.13,39.66v29.14h-9Z"/></g></g></svg>