<?xml version="1.0" encoding="UTF-8"?>
<!DOCTYPE svg PUBLIC "-//W3C//DTD SVG 1.1//EN" "http://www.w3.org/Graphics/SVG/1.1/DTD/svg11.dtd">
<!-- Creator: CorelDRAW 2019 (64-Bit) -->
<svg xmlns="http://www.w3.org/2000/svg" xml:space="preserve" width="0.90078in" height="0.26948in" version="1.1" shape-rendering="geometricPrecision" text-rendering="geometricPrecision" image-rendering="optimizeQuality" fill-rule="evenodd" clip-rule="evenodd"
viewBox="0 0 896.8 268.29"
 xmlns:xlink="http://www.w3.org/1999/xlink"
 xmlns:xodm="http://www.corel.com/coreldraw/odm/2003">
 <g id="Layer_x0020_1">
  <metadata id="CorelCorpID_0Corel-Layer"/>
  <path fill="#FEFEFE" fill-rule="nonzero" d="M828.54 253.69c3.21,4.88 7.62,8.54 13.26,10.96 5.63,2.43 12.61,3.64 20.94,3.64 6.58,0 12.49,-1.2 17.76,-3.6 5.25,-2.41 9.29,-5.79 12.09,-10.12 2.8,-4.33 4.21,-8.95 4.21,-13.85 0,-4.94 -1.28,-9.31 -3.83,-13.1 -2.55,-3.79 -6.51,-6.91 -11.86,-9.4 -3.7,-1.67 -10.48,-3.63 -20.39,-5.87 -9.91,-2.24 -16.03,-4.43 -18.38,-6.57 -2.39,-2.13 -3.59,-4.85 -3.59,-8.16 0,-3.81 1.7,-7.07 5.07,-9.77 3.36,-2.7 8.73,-4.05 16.1,-4.05 7.08,0 12.43,1.49 16.06,4.46 3.61,2.97 5.74,7.37 6.37,13.19l11.69 -0.87c-0.21,-5.41 -1.71,-10.24 -4.52,-14.51 -2.81,-4.27 -6.82,-7.51 -12.03,-9.7 -5.21,-2.2 -11.23,-3.3 -18.05,-3.3 -6.2,0 -11.83,1.05 -16.9,3.15 -5.08,2.09 -8.92,5.15 -11.56,9.2 -2.64,4.04 -3.96,8.39 -3.96,13.04 0,4.23 1.08,8.05 3.25,11.46 2.15,3.41 5.43,6.27 9.83,8.57 3.4,1.8 9.32,3.72 17.78,5.76 8.46,2.02 13.92,3.52 16.4,4.48 3.85,1.47 6.61,3.28 8.29,5.44 1.68,2.16 2.51,4.68 2.51,7.57 0,2.84 -0.87,5.47 -2.61,7.88 -1.74,2.41 -4.39,4.3 -7.95,5.68 -3.56,1.38 -7.66,2.07 -12.32,2.07 -5.22,0 -9.95,-0.91 -14.13,-2.73 -4.19,-1.82 -7.27,-4.21 -9.26,-7.16 -1.98,-2.96 -3.25,-6.73 -3.8,-11.34l-11.48 1c0.15,6.16 1.84,11.68 5.04,16.56zm-73.6 13.04l0 -76.71 28.77 0 0 -10.27 -68.94 0 0 10.27 28.65 0 0 76.71 11.51 0zm-132.53 -76.71l22.24 0c5.22,0 8.8,0.25 10.74,0.77 3.01,0.82 5.43,2.54 7.27,5.13 1.83,2.59 2.76,5.7 2.76,9.34 0,5.02 -1.56,8.92 -4.69,11.68 -3.12,2.77 -8.4,4.15 -15.84,4.15l-22.48 0 0 -31.08zm0 76.71l0 -35.36 22.29 0c12.3,0 20.81,-2.56 25.5,-7.69 4.72,-5.12 7.07,-11.37 7.07,-18.77 0,-4.31 -0.88,-8.27 -2.64,-11.87 -1.76,-3.6 -4.09,-6.4 -6.97,-8.4 -2.88,-2 -6.46,-3.35 -10.74,-4.06 -3.05,-0.55 -7.44,-0.83 -13.23,-0.83l-32.8 0 0 86.97 11.52 0zm-61.18 0l0 -10.26 -53.39 0 0 -29.6 48.12 0 0 -10.21 -48.12 0 0 -26.63 51.37 0 0 -10.27 -62.88 0 0 86.97 64.9 0zm-133.66 -13.94c-4.47,3.72 -9.92,5.57 -16.37,5.57 -5.31,0 -10.23,-1.36 -14.78,-4.1 -4.55,-2.72 -7.9,-6.85 -10.05,-12.37 -2.16,-5.51 -3.23,-11.97 -3.23,-19.37 0,-5.73 0.91,-11.31 2.73,-16.69 1.82,-5.41 4.97,-9.71 9.46,-12.91 4.49,-3.19 10.08,-4.81 16.77,-4.81 5.82,0 10.63,1.44 14.47,4.33 3.83,2.89 6.76,7.5 8.78,13.83l11.34 -2.67c-2.33,-8.03 -6.47,-14.26 -12.4,-18.7 -5.93,-4.43 -13.24,-6.63 -21.96,-6.63 -7.66,0 -14.7,1.74 -21.08,5.24 -6.39,3.51 -11.31,8.63 -14.77,15.38 -3.47,6.74 -5.2,14.64 -5.2,23.69 0,8.31 1.54,16.08 4.6,23.32 3.07,7.24 7.54,12.77 13.41,16.58 5.87,3.82 13.5,5.72 22.87,5.72 9.05,0 16.71,-2.47 22.98,-7.44 6.28,-4.97 10.61,-12.17 13.02,-21.62l-11.51 -2.91c-1.58,7.31 -4.61,12.83 -9.08,16.56zm-163.57 13.94l0 -68.35 45.68 68.35 11.82 0 0 -86.97 -11.04 0 0 68.29 -45.68 -68.29 -11.81 0 0 86.97 11.03 0zm-121.99 -70.21c5.87,-5.61 12.88,-8.4 21.02,-8.4 5.74,0 10.91,1.46 15.53,4.36 4.6,2.92 8.1,7 10.5,12.28 2.39,5.28 3.59,11.46 3.59,18.54 0,11.19 -2.8,19.84 -8.4,25.93 -5.6,6.09 -12.72,9.14 -21.39,9.14 -8.5,0 -15.57,-3.02 -21.21,-9.05 -5.64,-6.03 -8.46,-14.28 -8.46,-24.77 0,-13.1 2.94,-22.44 8.82,-28.03zm-15.7 49.56c3.33,6.84 8.21,12.24 14.66,16.2 6.44,3.96 13.77,5.93 21.95,5.93 7.55,0 14.59,-1.79 21.12,-5.35 6.52,-3.59 11.57,-8.86 15.13,-15.82 3.56,-6.96 5.33,-14.85 5.33,-23.67 0,-8.7 -1.68,-16.48 -5.06,-23.34 -3.39,-6.87 -8.3,-12.22 -14.75,-16.05 -6.44,-3.84 -13.68,-5.75 -21.72,-5.75 -12.26,0 -22.26,4.08 -30.02,12.24 -7.75,8.17 -11.62,19.47 -11.62,33.9 0,7.64 1.65,14.87 4.98,21.72zm-70 6.71c-4.47,3.72 -9.93,5.57 -16.37,5.57 -5.31,0 -10.23,-1.36 -14.78,-4.1 -4.55,-2.72 -7.9,-6.85 -10.06,-12.37 -2.16,-5.51 -3.23,-11.97 -3.23,-19.37 0,-5.73 0.91,-11.31 2.73,-16.69 1.81,-5.41 4.97,-9.71 9.47,-12.91 4.48,-3.19 10.07,-4.81 16.75,-4.81 5.82,0 10.65,1.44 14.49,4.33 3.83,2.89 6.77,7.5 8.78,13.83l11.34 -2.67c-2.34,-8.03 -6.47,-14.26 -12.4,-18.7 -5.93,-4.43 -13.26,-6.63 -21.95,-6.63 -7.67,0 -14.7,1.74 -21.09,5.24 -6.39,3.51 -11.31,8.63 -14.77,15.38 -3.46,6.74 -5.19,14.64 -5.19,23.69 0,8.31 1.53,16.08 4.59,23.32 3.07,7.24 7.54,12.77 13.41,16.58 5.88,3.82 13.5,5.72 22.87,5.72 9.06,0 16.72,-2.47 22.98,-7.44 6.27,-4.97 10.61,-12.17 13.02,-21.62l-11.5 -2.91c-1.59,7.31 -4.63,12.83 -9.09,16.56zm668.46 -165.81l0 -36.85 34.7 -50.13 -13.4 0 -16.85 25.57c-3.72,5.7 -6.88,10.83 -9.48,15.37 -2.74,-4.9 -5.68,-9.8 -8.85,-14.71l-17.14 -26.23 -14 0 33.52 50.13 0 36.85 11.51 0zm-105.95 0l0 -76.71 28.78 0 0 -10.27 -68.95 0 0 10.27 28.66 0 0 76.71 11.52 0zm-95.87 -36.78c0,10.91 -1.8,18.29 -5.4,22.12 -3.6,3.84 -9.62,5.75 -18.1,5.75 -4.94,0 -9.12,-0.97 -12.54,-2.9 -3.43,-1.94 -5.84,-4.7 -7.24,-8.28 -1.41,-3.57 -2.11,-9.15 -2.11,-16.7l0 -50.19 -11.51 0 0 50.25c0,9.21 1.11,16.49 3.33,21.8 2.2,5.31 5.9,9.38 11.09,12.19 5.19,2.81 11.84,4.21 19.99,4.21 8.38,0 15.16,-1.6 20.32,-4.83 5.16,-3.21 8.73,-7.4 10.7,-12.55 1.98,-5.15 2.98,-12.08 2.98,-20.82l0 -50.25 -11.52 0 0 50.19zm-140.02 -50.19l-33.98 86.98 11.74 0 23.49 -63.12c1.78,-4.75 3.32,-9.52 4.63,-14.31 1.07,4 2.59,8.76 4.56,14.31l22.61 63.12 12.52 0 -33.69 -86.98 -11.88 0zm-68.22 86.98l0 -10.26 -53.39 0 0 -29.61 48.11 0 0 -10.21 -48.11 0 0 -26.63 51.37 0 0 -10.27 -62.89 0 0 86.98 64.9 0zm-168.9 -40.16l20.11 0c5.53,0 9.78,0.48 12.73,1.45 2.95,0.98 5.25,2.65 6.91,5.05 1.65,2.38 2.49,5.21 2.49,8.45 0,2.77 -0.58,5.22 -1.72,7.33 -1.14,2.12 -2.61,3.73 -4.39,4.84 -1.79,1.11 -4,1.9 -6.65,2.37 -1.51,0.27 -4.11,0.42 -7.83,0.42l-21.65 0 0 -29.9zm0 -36.55l17.38 0c6.26,0 10.67,0.41 13.24,1.22 2.57,0.82 4.55,2.31 5.93,4.51 1.39,2.2 2.08,4.74 2.08,7.63 0,3.04 -0.74,5.58 -2.22,7.59 -1.49,2.01 -3.69,3.46 -6.62,4.33 -2.22,0.67 -5.88,1.01 -10.97,1.01l-18.81 0 0 -26.28zm21.65 76.71c5.53,0 10.21,-0.48 14.03,-1.46 3.82,-0.97 6.99,-2.39 9.52,-4.3 2.53,-1.9 4.66,-4.6 6.38,-8.1 1.72,-3.5 2.57,-7.29 2.57,-11.37 0,-5.06 -1.41,-9.45 -4.23,-13.17 -2.83,-3.71 -6.87,-6.34 -12.14,-7.88 4.07,-2.02 7.12,-4.67 9.13,-7.95 2.02,-3.29 3.04,-6.79 3.04,-10.51 0,-3.99 -1.14,-7.82 -3.41,-11.48 -2.28,-3.66 -5.42,-6.37 -9.44,-8.13 -4.01,-1.75 -9.34,-2.64 -15.99,-2.64l-32.63 0 0 86.98 33.16 0z"/>
 </g>
</svg>
