<svg width="188" height="65" viewBox="0 0 188 65" fill="none" xmlns="http://www.w3.org/2000/svg">
<g clip-path="url(#clip0_103_26)">
<path d="M173.313 60.581C173.985 61.9447 174.907 62.9663 176.086 63.643C177.264 64.3218 178.724 64.6598 180.467 64.6598C181.843 64.6598 183.079 64.3238 184.181 63.6532C185.279 62.9798 186.123 62.037 186.71 60.8267C187.296 59.6158 187.59 58.3248 187.59 56.957C187.59 55.5771 187.323 54.3566 186.788 53.2991C186.254 52.2416 185.426 51.3673 184.306 50.6743C183.533 50.2073 182.112 49.6595 180.041 49.0343C177.969 48.4085 176.688 47.7963 176.196 47.1996C175.697 46.603 175.447 45.8441 175.447 44.9189C175.447 43.856 175.801 42.945 176.507 42.1889C177.211 41.4361 178.334 41.0567 179.875 41.0567C181.356 41.0567 182.476 41.4741 183.234 42.3036C183.989 43.1337 184.435 44.363 184.566 45.988L187.011 45.745C186.967 44.234 186.652 42.8846 186.064 41.69C185.478 40.4974 184.638 39.5932 183.547 38.9789C182.458 38.364 181.199 38.0558 179.77 38.0558C178.473 38.0558 177.295 38.3497 176.236 38.9362C175.174 39.5206 174.368 40.3765 173.817 41.5067C173.264 42.6348 172.988 43.8498 172.988 45.1483C172.988 46.3294 173.215 47.3965 173.667 48.3495C174.118 49.3025 174.803 50.1014 175.723 50.7449C176.434 51.2478 177.672 51.7841 179.441 52.3529C181.211 52.9183 182.354 53.3378 182.871 53.6052C183.675 54.0145 184.254 54.5216 184.606 55.1243C184.956 55.7264 185.131 56.431 185.131 57.2394C185.131 58.0329 184.95 58.7687 184.586 59.4414C184.223 60.114 183.668 60.6442 182.924 61.029C182.179 61.4152 181.321 61.6094 180.348 61.6094C179.254 61.6094 178.266 61.3535 177.391 60.8458C176.515 60.338 175.87 59.6694 175.454 58.8454C175.039 58.0193 174.774 56.9638 174.658 55.6769L172.256 55.9565C172.288 57.6772 172.641 59.2201 173.311 60.5817L173.313 60.581ZM157.917 64.2227V42.793H163.936V39.9252H149.515V42.793H155.509V64.2227H157.917V64.2227ZM130.195 42.793H134.847C135.938 42.793 136.687 42.8643 137.092 43.0088C137.721 43.2389 138.228 43.7182 138.614 44.4411C138.998 45.166 139.19 46.0348 139.19 47.0516C139.19 48.456 138.863 49.5434 138.208 50.3152C137.555 51.089 136.451 51.4752 134.896 51.4752H130.195V42.793H130.195ZM130.195 64.2227V54.3437H134.858C137.432 54.3437 139.212 53.6283 140.193 52.1961C141.18 50.7659 141.672 49.0194 141.672 46.9525C141.672 45.7477 141.488 44.642 141.12 43.6367C140.752 42.6314 140.265 41.8495 139.661 41.2915C139.058 40.7343 138.31 40.3548 137.415 40.1559C136.777 40.0025 135.858 39.9245 134.648 39.9245H127.786V64.2227H130.195V64.2227ZM117.397 64.2227V61.3562H106.23V53.0846H116.295V50.2317H106.23V42.7923H116.976V39.9245H103.822V64.2227H117.397ZM89.4384 60.3285C88.5033 61.3664 87.3628 61.8856 86.0149 61.8856C84.9049 61.8856 83.8742 61.5048 82.9238 60.7412C81.9719 59.9796 81.2711 58.8277 80.8202 57.2842C80.3689 55.7427 80.1438 53.9399 80.1438 51.8737C80.1438 50.2724 80.3344 48.7146 80.7145 47.2105C81.0947 45.6995 81.7554 44.4967 82.6926 43.6028C83.6328 42.7109 84.8018 42.2608 86.2004 42.2608C87.4177 42.2608 88.425 42.664 89.2275 43.4697C90.03 44.2768 90.6424 45.5644 91.0632 47.3333L93.4347 46.588C92.9468 44.344 92.0812 42.6036 90.8411 41.3642C89.601 40.1274 88.0702 39.5111 86.2482 39.5111C84.6452 39.5111 83.1734 39.9985 81.8382 40.9752C80.5021 41.9547 79.4719 43.3869 78.7492 45.2705C78.0234 47.1541 77.6616 49.3595 77.6616 51.89C77.6616 54.2121 77.9833 56.3821 78.6236 58.4042C79.265 60.4269 80.2002 61.9698 81.4276 63.0355C82.655 64.1032 84.2514 64.6354 86.2121 64.6354C88.1063 64.6354 89.7078 63.9444 91.02 62.5563C92.3323 61.1688 93.2385 59.1563 93.7442 56.5158L91.3372 55.704C91.0068 57.7465 90.3731 59.288 89.4374 60.3292L89.4384 60.3285ZM55.2234 64.2227V45.128L64.7793 64.2227H67.2508V39.9245H64.9414V59.0029L55.3866 39.9245H52.916V64.2227H55.2229H55.2234ZM29.7044 44.608C30.9318 43.0428 32.398 42.2608 34.1011 42.2608C35.3016 42.2608 36.3836 42.6681 37.3488 43.4799C38.3109 44.2938 39.0427 45.4334 39.5443 46.9104C40.045 48.3854 40.296 50.1116 40.296 52.0895C40.296 55.216 39.7105 57.6311 38.539 59.3334C37.3681 61.0338 35.8779 61.8856 34.0656 61.8856C32.2867 61.8856 30.8078 61.0419 29.6292 59.3572C28.4495 57.6731 27.86 55.3673 27.86 52.4371C27.86 48.7791 28.4755 46.1685 29.7049 44.6074L29.7044 44.608ZM26.4207 58.4551C27.1164 60.3665 28.1375 61.8734 29.4858 62.9798C30.8337 64.0856 32.3655 64.6354 34.0783 64.6354C35.6579 64.6354 37.1302 64.1358 38.4964 63.1387C39.8594 62.1375 40.9156 60.6645 41.6611 58.7185C42.4057 56.7751 42.7757 54.5691 42.7757 52.1051C42.7757 49.6738 42.425 47.5003 41.7171 45.5848C41.0091 43.6666 39.9809 42.1719 38.6321 41.1001C37.2837 40.0283 35.7697 39.4941 34.0889 39.4941C31.5254 39.4941 29.4335 40.6331 27.8102 42.9158C26.1899 45.1986 25.3788 48.3549 25.3788 52.3875C25.3788 54.5209 25.7254 56.5409 26.4207 58.4551V58.4551ZM11.7768 60.3285C10.8412 61.3664 9.69969 61.8856 8.35286 61.8856C7.24186 61.8856 6.21369 61.5048 5.26177 60.7412C4.30933 59.9796 3.60847 58.8277 3.15767 57.2842C2.70686 55.7427 2.48172 53.9399 2.48172 51.8737C2.48172 50.2724 2.6718 48.7146 3.05246 47.2105C3.43212 45.6995 4.09282 44.4967 5.03255 43.6028C5.97076 42.7109 7.13919 42.2608 8.53633 42.2608C9.75356 42.2608 10.7629 42.664 11.5664 43.4697C12.3689 44.2768 12.9814 45.5644 13.4022 47.3333L15.7731 46.588C15.2842 44.344 14.4202 42.6036 13.1791 41.3642C11.9385 40.1274 10.4061 39.5111 8.58716 39.5111C6.98215 39.5111 5.51182 39.9985 4.17516 40.9752C2.83901 41.9547 1.80881 43.3869 1.08457 45.2705C0.360845 47.1541 -0.000511169 49.3595 -0.000511169 51.89C-0.000511169 54.2121 0.319678 56.3821 0.961072 58.4042C1.60348 60.4269 2.53711 61.9698 3.76501 63.0355C4.99393 64.1032 6.58877 64.6354 8.54904 64.6354C10.4448 64.6354 12.0467 63.9444 13.357 62.5563C14.6682 61.1688 15.5759 59.1563 16.0811 56.5158L13.6756 55.704C13.3437 57.7465 12.7084 59.288 11.7753 60.3292L11.7768 60.3285ZM150.52 24.297V14.0033L157.779 -0.0012207H154.976L151.451 7.14155C150.672 8.73329 150.012 10.1655 149.468 11.4348C148.894 10.065 148.279 8.69731 147.617 7.32482L144.03 -0.0012207H141.102L148.113 14.0033V24.297H150.52V24.297ZM128.357 24.297V2.86729H134.376V-0.000541926H119.953V2.86729H125.948V24.297H128.357ZM108.302 14.0216C108.302 17.0694 107.925 19.1322 107.172 20.2019C106.42 21.2757 105.159 21.8093 103.386 21.8093C102.353 21.8093 101.478 21.5391 100.763 20.9995C100.046 20.4578 99.5416 19.686 99.2489 18.6869C98.9546 17.6877 98.8083 16.1299 98.8083 14.0216V-0.000541926H96.4007V14.0379C96.4007 16.6119 96.6315 18.6428 97.097 20.1293C97.5575 21.6138 98.3315 22.75 99.4161 23.534C100.501 24.3201 101.893 24.7104 103.599 24.7104C105.353 24.7104 106.769 24.263 107.849 23.3609C108.928 22.4622 109.676 21.292 110.088 19.8557C110.503 18.4174 110.711 16.4795 110.711 14.0379V-0.000541926H108.302V14.0216V14.0216ZM79.0135 -0.000541926L71.9048 24.2977H74.3601L79.2742 6.66302C79.6472 5.33669 79.97 4.00425 80.2424 2.66637C80.466 3.78432 80.7852 5.11405 81.1968 6.66302L85.926 24.2977H88.5439L81.4972 -0.000541926H79.013H79.0135ZM64.7432 24.2977V21.4312H53.5742V13.1596H63.6388V10.3067H53.5742V2.86729H64.3209V-0.000541926H51.1667V24.2977H64.7432V24.2977ZM29.4121 13.0775H33.6188C34.7771 13.0775 35.6645 13.2125 36.2815 13.482C36.8974 13.7542 37.3793 14.2232 37.7274 14.8925C38.073 15.5591 38.2478 16.3465 38.2478 17.2526C38.2478 18.0271 38.1274 18.7093 37.887 19.2998C37.6471 19.8924 37.3411 20.3411 36.9701 20.6519C36.5961 20.9615 36.1331 21.1814 35.5791 21.3144C35.2635 21.3911 34.7191 21.4312 33.941 21.4312H29.4116V13.0775H29.4121ZM29.4121 2.86797H33.047C34.3547 2.86797 35.2782 2.98133 35.8154 3.20668C36.3531 3.43475 36.7668 3.85288 37.056 4.46581C37.3457 5.08011 37.4906 5.79147 37.4906 6.59718C37.4906 7.447 37.3355 8.15633 37.026 8.71836C36.7155 9.28038 36.2535 9.68493 35.6416 9.92726C35.1766 10.1166 34.4122 10.2096 33.3459 10.2096H29.4121V2.86797ZM33.9415 24.2977C35.0988 24.2977 36.0772 24.1633 36.8756 23.8911C37.6745 23.6189 38.3383 23.2218 38.8679 22.6903C39.3975 22.1581 39.8427 21.4047 40.2025 20.4279C40.5634 19.4491 40.7407 18.3909 40.7407 17.2526C40.7407 15.8394 40.4454 14.6122 39.8554 13.573C39.2628 12.5358 38.4166 11.8007 37.3167 11.371C38.1675 10.807 38.8059 10.0657 39.2262 9.14938C39.649 8.23031 39.8615 7.25355 39.8615 6.21434C39.8615 5.09843 39.6216 4.03072 39.1479 3.0078C38.6712 1.98624 38.0135 1.22872 37.1734 0.737289C36.3348 0.247891 35.2187 0.000136852 33.8297 0.000136852H27.0046V24.2983H33.9415V24.2977Z" fill="#2B2A29"/>
</g>
<defs>
<clipPath id="clip0_103_26">
<rect width="187.59" height="64.66" fill="white"/>
</clipPath>
</defs>
</svg>
