<svg width="188" height="65" viewBox="0 0 188 65" fill="none" xmlns="http://www.w3.org/2000/svg">
<g clip-path="url(#clip0_103_29)">
<path d="M173.313 60.581C173.985 61.9447 174.908 62.9662 176.086 63.643C177.264 64.3218 178.723 64.6598 180.468 64.6598C181.844 64.6598 183.08 64.3238 184.18 63.6531C185.279 62.9799 186.123 62.037 186.71 60.8268C187.296 59.6158 187.59 58.3247 187.59 56.957C187.59 55.5771 187.323 54.3566 186.788 53.2991C186.254 52.2416 185.427 51.3673 184.306 50.6743C183.533 50.2073 182.112 49.6595 180.041 49.0343C177.969 48.4085 176.688 47.7963 176.197 47.1996C175.697 46.603 175.447 45.8441 175.447 44.9189C175.447 43.856 175.801 42.9451 176.507 42.1888C177.211 41.4361 178.333 41.0567 179.875 41.0567C181.356 41.0567 182.475 41.4742 183.235 42.3036C183.989 43.1337 184.435 44.363 184.566 45.988L187.01 45.7449C186.967 44.234 186.652 42.8846 186.064 41.69C185.478 40.4974 184.637 39.5933 183.547 38.979C182.458 38.364 181.199 38.0558 179.77 38.0558C178.473 38.0558 177.294 38.3497 176.236 38.9361C175.174 39.5206 174.368 40.3765 173.817 41.5067C173.264 42.6348 172.989 43.8498 172.989 45.1484C172.989 46.3294 173.214 47.3964 173.667 48.3494C174.117 49.3025 174.803 50.1014 175.723 50.7449C176.434 51.2478 177.672 51.7841 179.442 52.3529C181.211 52.9183 182.353 53.3377 182.871 53.6053C183.676 54.0146 184.254 54.5215 184.606 55.1243C184.957 55.7264 185.131 56.431 185.131 57.2394C185.131 58.0329 184.95 58.7687 184.586 59.4413C184.223 60.114 183.668 60.6441 182.924 61.0291C182.179 61.4152 181.321 61.6094 180.348 61.6094C179.254 61.6094 178.266 61.3535 177.391 60.8458C176.515 60.338 175.87 59.6694 175.454 58.8454C175.038 58.0193 174.774 56.9639 174.658 55.6768L172.256 55.9565C172.288 57.6772 172.642 59.2201 173.311 60.5817L173.313 60.581ZM157.917 64.2227V42.793H163.936V39.9251H149.515V42.793H155.509V64.2227H157.917ZM130.195 42.793H134.847C135.939 42.793 136.687 42.8642 137.092 43.0088C137.721 43.239 138.228 43.7182 138.614 44.441C138.997 45.166 139.19 46.0348 139.19 47.0516C139.19 48.456 138.862 49.5434 138.208 50.3152C137.555 51.089 136.452 51.4752 134.896 51.4752H130.194V42.793H130.195ZM130.195 64.2227V54.3437H134.858C137.432 54.3437 139.212 53.6283 140.194 52.1961C141.18 50.7659 141.672 49.0194 141.672 46.9526C141.672 45.7477 141.488 44.642 141.12 43.6367C140.752 42.6315 140.264 41.8495 139.662 41.2915C139.058 40.7343 138.31 40.3548 137.415 40.1559C136.777 40.0025 135.858 39.9244 134.648 39.9244H127.787V64.2227H130.195ZM117.397 64.2227V61.3562H106.23V53.0846H116.295V50.2317H106.23V42.7923H116.976V39.9244H103.822V64.2227H117.397ZM89.4384 60.3285C88.5033 61.3664 87.3628 61.8856 86.015 61.8856C84.9049 61.8856 83.8743 61.5048 82.9239 60.7412C81.9719 59.9796 81.2711 58.8278 80.8203 57.2842C80.3689 55.7427 80.1438 53.9399 80.1438 51.8737C80.1438 50.2725 80.3344 48.7147 80.7146 47.2105C81.0948 45.6995 81.7554 44.4967 82.6926 43.6028C83.6328 42.7109 84.8018 42.2608 86.2005 42.2608C87.4176 42.2608 88.425 42.664 89.2275 43.4697C90.03 44.2768 90.6425 45.5644 91.0633 47.3334L93.4347 46.588C92.9468 44.3439 92.0812 42.6036 90.8412 41.3641C89.6011 40.1274 88.0702 39.5111 86.2482 39.5111C84.6453 39.5111 83.1734 39.9985 81.8382 40.9753C80.5021 41.9547 79.4719 43.3869 78.7492 45.2705C78.0235 47.1541 77.6616 49.3594 77.6616 51.89C77.6616 54.2121 77.9833 56.3821 78.6237 58.4042C79.2651 60.4269 80.2002 61.9698 81.4276 63.0354C82.655 64.1032 84.2514 64.6354 86.2122 64.6354C88.1063 64.6354 89.7078 63.9444 91.0201 62.5562C92.3323 61.1689 93.2385 59.1562 93.7442 56.5158L91.3372 55.704C91.0069 57.7464 90.3731 59.288 89.4374 60.3292L89.4384 60.3285ZM55.2235 64.2227V45.1279L64.7793 64.2227H67.2509V39.9244H64.9415V59.0029L55.3866 39.9244H52.916V64.2227H55.2229H55.2235ZM29.7044 44.608C30.9318 43.0428 32.3981 42.2608 34.1012 42.2608C35.3016 42.2608 36.3837 42.668 37.3488 43.4799C38.3109 44.2937 39.0428 45.4335 39.5444 46.9104C40.045 48.3854 40.296 50.1115 40.296 52.0895C40.296 55.216 39.7105 57.6311 38.5391 59.3334C37.3681 61.0338 35.878 61.8856 34.0655 61.8856C32.2867 61.8856 30.8078 61.0419 29.6291 59.3572C28.4495 57.6731 27.86 55.3674 27.86 52.4371C27.86 48.7791 28.4755 46.1686 29.7049 44.6073L29.7044 44.608ZM26.4207 58.4551C27.1164 60.3665 28.1375 61.8734 29.4859 62.9799C30.8337 64.0856 32.3656 64.6354 34.0783 64.6354C35.6579 64.6354 37.1302 64.1358 38.4964 63.1387C39.8595 62.1375 40.9156 60.6645 41.6611 58.7185C42.4057 56.7751 42.7757 54.5691 42.7757 52.1052C42.7757 49.6737 42.4251 47.5003 41.7171 45.5848C41.0091 43.6665 39.9809 42.1719 38.6321 41.1001C37.2837 40.0283 35.7697 39.4941 34.089 39.4941C31.5254 39.4941 29.4335 40.6331 27.8102 42.9159C26.19 45.1986 25.3788 48.3549 25.3788 52.3875C25.3788 54.5209 25.7254 56.5409 26.4207 58.4551ZM11.7769 60.3285C10.8412 61.3664 9.69971 61.8856 8.35288 61.8856C7.24188 61.8856 6.21372 61.5048 5.26179 60.7412C4.30936 59.9796 3.6085 58.8278 3.15769 57.2842C2.70688 55.7427 2.48173 53.9399 2.48173 51.8737C2.48173 50.2725 2.67182 48.7147 3.05249 47.2105C3.43214 45.6995 4.09284 44.4967 5.03258 43.6028C5.97078 42.7109 7.13922 42.2608 8.53636 42.2608C9.75358 42.2608 10.763 42.664 11.5664 43.4697C12.369 44.2768 12.9814 45.5644 13.4022 47.3334L15.7731 46.588C15.2842 44.3439 14.4202 42.6036 13.1791 41.3641C11.9385 40.1274 10.4062 39.5111 8.58718 39.5111C6.98217 39.5111 5.51184 39.9985 4.17518 40.9753C2.83902 41.9547 1.80884 43.3869 1.0846 45.2705C0.360868 47.1541 -0.000488281 49.3594 -0.000488281 51.89C-0.000488281 54.2121 0.3197 56.3821 0.961094 58.4042C1.6035 60.4269 2.53713 61.9698 3.76503 63.0354C4.99395 64.1032 6.5888 64.6354 8.54906 64.6354C10.4448 64.6354 12.0468 63.9444 13.357 62.5562C14.6682 61.1689 15.576 59.1562 16.0812 56.5158L13.6756 55.704C13.3437 57.7464 12.7084 59.288 11.7754 60.3292L11.7769 60.3285ZM150.52 24.297V14.0033L157.779 -0.0012207H154.976L151.451 7.14156C150.673 8.73329 150.012 10.1655 149.467 11.4348C148.895 10.065 148.279 8.69731 147.616 7.32483L144.029 -0.0012207H141.103L148.113 14.0033V24.297H150.52ZM128.356 24.297V2.86729H134.376V-0.000541929H119.954V2.86729H125.948V24.297H128.356ZM108.301 14.0216C108.301 17.0693 107.925 19.1322 107.173 20.2019C106.419 21.2758 105.159 21.8092 103.386 21.8092C102.353 21.8092 101.478 21.5391 100.763 20.9995C100.046 20.4578 99.5416 19.6861 99.2489 18.6869C98.9546 17.6878 98.8082 16.13 98.8082 14.0216V-0.000541929H96.4008V14.0379C96.4008 16.6119 96.6315 18.6428 97.0971 20.1293C97.5575 21.6137 98.3316 22.75 99.4161 23.534C100.501 24.3201 101.892 24.7103 103.599 24.7103C105.353 24.7103 106.77 24.2631 107.849 23.361C108.928 22.4622 109.676 21.292 110.087 19.8557C110.502 18.4174 110.711 16.4795 110.711 14.0379V-0.000541929H108.301V14.0216ZM79.0135 -0.000541929L71.9047 24.2976H74.3601L79.2742 6.66301C79.6472 5.33669 79.97 4.00424 80.2424 2.66638C80.466 3.78432 80.7852 5.11404 81.1968 6.66301L85.926 24.2976H88.544L81.4973 -0.000541929H79.013H79.0135ZM64.7432 24.2976V21.4312H53.5742V13.1596H63.6388V10.3067H53.5742V2.86729H64.3209V-0.000541929H51.1667V24.2976H64.7432ZM29.4122 13.0775H33.6188C34.7771 13.0775 35.6645 13.2126 36.2815 13.482C36.8975 13.7542 37.3793 14.2232 37.7274 14.8925C38.073 15.559 38.2478 16.3465 38.2478 17.2526C38.2478 18.0271 38.1274 18.7093 37.887 19.2998C37.6471 19.8924 37.3412 20.341 36.9701 20.6519C36.5961 20.9615 36.1331 21.1814 35.5791 21.3145C35.2635 21.3912 34.7192 21.4312 33.941 21.4312H29.4116V13.0775H29.4122ZM29.4122 2.86797H33.0471C34.3547 2.86797 35.2782 2.98132 35.8154 3.20668C36.3531 3.43475 36.7668 3.85288 37.056 4.46582C37.3458 5.08011 37.4906 5.79147 37.4906 6.59717C37.4906 7.44701 37.3356 8.15633 37.0261 8.71835C36.7156 9.28038 36.2536 9.68493 35.6416 9.92725C35.1766 10.1167 34.4122 10.2096 33.3459 10.2096H29.4122V2.86797ZM33.9416 24.2976C35.0988 24.2976 36.0771 24.1633 36.8756 23.8911C37.6746 23.6189 38.3383 23.2217 38.8679 22.6903C39.3975 22.1582 39.8427 21.4047 40.2025 20.4279C40.5633 19.4491 40.7408 18.3909 40.7408 17.2526C40.7408 15.8394 40.4455 14.6122 39.8554 13.573C39.2628 12.5358 38.4166 11.8007 37.3167 11.371C38.1676 10.8069 38.8059 10.0657 39.2262 9.14937C39.649 8.23031 39.8615 7.25355 39.8615 6.21434C39.8615 5.09843 39.6216 4.03072 39.1479 3.0078C38.6712 1.98624 38.0135 1.22872 37.1735 0.737289C36.3349 0.247891 35.2187 0.000136849 33.8298 0.000136849H27.0047V24.2983H33.9416V24.2976Z" fill="#FEFEFE"/>
</g>
<defs>
<clipPath id="clip0_103_29">
<rect width="187.59" height="64.66" fill="white"/>
</clipPath>
</defs>
</svg>
