<?xml version="1.0" encoding="utf-8"?>
<!-- Generator: Adobe Illustrator 16.0.0, SVG Export Plug-In . SVG Version: 6.00 Build 0)  -->
<!DOCTYPE svg PUBLIC "-//W3C//DTD SVG 1.1//EN" "http://www.w3.org/Graphics/SVG/1.1/DTD/svg11.dtd">
<svg version="1.1" id="Layer_1" xmlns="http://www.w3.org/2000/svg" xmlns:xlink="http://www.w3.org/1999/xlink" x="0px" y="0px"
	 width="555px" height="555px" viewBox="0 0 555 555" enable-background="new 0 0 555 555" xml:space="preserve">
<g>
	<path fill="#B1946E" d="M305.768,265.637h-17.734v-34.856l16.797-20.215h0.134v47.333l18.902,5.952v-93.612l-46.688,47.373
		l-46.687-47.003v93.242l18.902-5.952v-47.21h0.27l17.537,21.136l-0.001,33.803c-0.065,0.038-18.317,0.006-18.317,0.006
		c-12.082,0-18.121,5.16-18.121,15.475v52.505c0.066,10.318,6.313,15.474,18.74,15.474h17.739v40.762h20.828l0.007-40.746
		c0.062-0.038,18.318-0.009,18.318-0.009c12.075,0,18.111-5.159,18.111-15.477v-52.501
		C324.445,270.793,318.197,265.637,305.768,265.637 M267.203,331.79h-15.619v-48.856h15.619V331.79z M303.692,331.795H288.07
		v-48.862h15.622V331.795z"/>
	<path fill="none" stroke="#B1946E" stroke-width="5.37" stroke-miterlimit="10" d="M277.501,482.514
		c-113.046,0-205.015-91.968-205.015-205.014S164.456,72.487,277.501,72.487c113.044,0,205.012,91.968,205.012,205.014
		S390.545,482.514,277.501,482.514z"/>
	
		<text transform="matrix(0.298 0.9546 -0.9546 0.298 97.3428 325.688)" fill="#B1946E" font-family="'GillSans'" font-size="31.0524">L</text>
	
		<text transform="matrix(0.4217 0.9067 -0.9067 0.4217 103.8345 345.771)" fill="#B1946E" font-family="'GillSans'" font-size="31.0523">U</text>
	
		<text transform="matrix(0.5534 0.8329 -0.8329 0.5534 116.0566 371.2368)" fill="#B1946E" font-family="'GillSans'" font-size="31.0525">X</text>
	
		<text transform="matrix(0.658 0.7531 -0.7531 0.658 132.1069 394.0884)" fill="#B1946E" font-family="'GillSans'" font-size="31.0524">E</text>
	
		<text transform="matrix(0.7251 0.6886 -0.6886 0.7251 146.147 409.6997)" fill="#B1946E" font-family="'GillSans-Light'" font-size="31.0525"> </text>
	
		<text transform="matrix(0.778 0.6283 -0.6283 0.778 156.3999 419.0337)" fill="#B1946E" font-family="'GillSans-SemiBold'" font-size="31.0524">•</text>
	
		<text transform="matrix(0.8259 0.5638 -0.5638 0.8259 169.127 429.0913)" fill="#B1946E" font-family="'GillSans-Light'" font-size="31.0525"> </text>
	
		<text transform="matrix(0.8821 0.471 -0.471 0.8821 180.8735 437.0581)" fill="#B1946E" font-family="'GillSans'" font-size="31.0523">A</text>
	
		<text transform="matrix(0.9389 0.3442 -0.3442 0.9389 204.8027 449.2661)" fill="#B1946E" font-family="'GillSans'" font-size="31.0525">R</text>
	
		<text transform="matrix(0.9728 0.2317 -0.2317 0.9728 225.2554 456.5542)" fill="#B1946E" font-family="'GillSans'" font-size="31.0524">T</text>
	
		<text transform="matrix(0.9916 0.1296 -0.1296 0.9916 248.9902 461.7515)" fill="#B1946E" font-family="'GillSans-Light'" font-size="31.0525"> </text>
	
		<text transform="matrix(0.9988 0.0492 -0.0492 0.9988 262.7246 463.3794)" fill="#B1946E" font-family="'GillSans-SemiBold'" font-size="31.0525">•</text>
	
		<text transform="matrix(0.9995 -0.0306 0.0306 0.9995 278.8872 463.8843)" fill="#B1946E" font-family="'GillSans-Light'" font-size="31.0524"> </text>
	
		<text transform="matrix(0.9926 -0.1214 0.1214 0.9926 293.0767 463.3511)" fill="#B1946E" font-family="'GillSans'" font-size="31.0525">F</text>
	
		<text transform="matrix(0.9707 -0.2405 0.2405 0.9707 313.1665 460.7065)" fill="#B1946E" font-family="'GillSans'" font-size="31.0525">R</text>
	
		<text transform="matrix(0.9278 -0.3731 0.3731 0.9278 337.1333 454.356)" fill="#B1946E" font-family="'GillSans'" font-size="31.0524">A</text>
	
		<text transform="matrix(0.8648 -0.5022 0.5022 0.8648 360.7876 444.5513)" fill="#B1946E" font-family="'GillSans'" font-size="31.0523">G</text>
	
		<text transform="matrix(0.7838 -0.621 0.621 0.7838 385.604 429.4106)" fill="#B1946E" font-family="'GillSans'" font-size="31.0523">R</text>
	
		<text transform="matrix(0.6916 -0.7223 0.7223 0.6916 404.8989 413.7915)" fill="#B1946E" font-family="'GillSans'" font-size="31.0525">A</text>
	
		<text transform="matrix(0.5736 -0.8192 0.8192 0.5736 423.2739 394.0728)" fill="#B1946E" font-family="'GillSans'" font-size="31.0524">N</text>
	
		<text transform="matrix(0.4378 -0.899 0.899 0.4378 440.3101 368.5952)" fill="#B1946E" font-family="'GillSans'" font-size="31.0525">C</text>
	
		<text transform="matrix(0.3145 -0.9492 0.9492 0.3145 452.0161 343.3345)" fill="#B1946E" font-family="'GillSans'" font-size="31.0525">E</text>
	<circle fill="none" stroke="#B1946E" stroke-width="5.37" stroke-miterlimit="10" cx="277.5" cy="277.5" r="145.38"/>
	
		<text transform="matrix(-0.1447 -0.9895 0.9895 -0.1447 112.7827 307.271)" fill="#B1946E" font-family="'GillSans-SemiBold'" font-size="31.0525">•</text>
	
		<text transform="matrix(-0.097 -0.9953 0.9953 -0.097 117.8193 299.4136)" fill="#B1946E" font-family="'GillSans-SemiBold'" font-size="43.5154"> </text>
	
		<text transform="matrix(0.0674 -0.9977 0.9977 0.0674 115.6509 284.5659)" fill="#B1946E" font-family="'GillSans-SemiBold'" font-size="43.5157">M</text>
	
		<text transform="matrix(0.2887 -0.9574 0.9574 0.2887 118.6841 246.1362)" fill="#B1946E" font-family="'GillSans-SemiBold'" font-size="43.5154">A</text>
	
		<text transform="matrix(0.4331 -0.9014 0.9014 0.4331 129.584 213.5815)" fill="#B1946E" font-family="'GillSans-SemiBold'" font-size="43.5156">I</text>
	
		<text transform="matrix(0.5457 -0.838 0.838 0.5457 136.0723 199.4941)" fill="#B1946E" font-family="'GillSans-SemiBold'" font-size="43.5155">S</text>
	
		<text transform="matrix(0.7019 -0.7122 0.7122 0.7019 149.769 177.6426)" fill="#B1946E" font-family="'GillSans-SemiBold'" font-size="43.5154">O</text>
	
		<text transform="matrix(0.8485 -0.5292 0.5292 0.8485 177.6689 149.9189)" fill="#B1946E" font-family="'GillSans-SemiBold'" font-size="43.5157">N</text>
	
		<text transform="matrix(0.9231 -0.3846 0.3846 0.9231 210.0366 131.1411)" fill="#B1946E" font-family="'GillSans-SemiBold'" font-size="43.5157"> </text>
	
		<text transform="matrix(0.9725 -0.2329 0.2329 0.9725 223.4683 124.8457)" fill="#B1946E" font-family="'GillSans-SemiBold'" font-size="43.5155">D</text>
	
		<text transform="matrix(0.9993 -0.0386 0.0386 0.9993 258.7983 117.1323)" fill="#B1946E" font-family="'GillSans-SemiBold'" font-size="43.5159">E</text>
	
		<text transform="matrix(0.9922 0.1249 -0.1249 0.9922 286.3784 116.2793)" fill="#B1946E" font-family="'GillSans-SemiBold'" font-size="43.5158">S</text>
	
		<text transform="matrix(0.968 0.2511 -0.2511 0.968 312.1626 120.0894)" fill="#B1946E" font-family="'GillSans-SemiBold'" font-size="43.5155"> </text>
	
		<text transform="matrix(0.9253 0.3793 -0.3793 0.9253 326.7769 123.7217)" fill="#B1946E" font-family="'GillSans-SemiBold'" font-size="43.5158">P</text>
	
		<text transform="matrix(0.8439 0.5365 -0.5365 0.8439 350.3657 133.0601)" fill="#B1946E" font-family="'GillSans-SemiBold'" font-size="43.5157">A</text>
	
		<text transform="matrix(0.7209 0.693 -0.693 0.7209 378.9976 151.7065)" fill="#B1946E" font-family="'GillSans-SemiBold'" font-size="43.5156">R</text>
	
		<text transform="matrix(0.5896 0.8077 -0.8077 0.5896 400.8042 173.187)" fill="#B1946E" font-family="'GillSans-SemiBold'" font-size="43.5155">F</text>
	
		<text transform="matrix(0.4256 0.9049 -0.9049 0.4256 416.146 194.0195)" fill="#B1946E" font-family="'GillSans-SemiBold'" font-size="43.5156">U</text>
	
		<text transform="matrix(0.2072 0.9783 -0.9783 0.2072 431.3677 226.2129)" fill="#B1946E" font-family="'GillSans-SemiBold'" font-size="43.5155">M</text>
	
		<text transform="matrix(0.0162 0.9999 -0.9999 0.0162 438.3325 264.2837)" fill="#B1946E" font-family="'GillSans-SemiBold'" font-size="43.5157">S</text>
	
		<text transform="matrix(-0.0654 0.9979 -0.9979 -0.0654 438.604 282.1479)" fill="#B1946E" font-family="'GillSans-SemiBold'" font-size="43.5155"> </text>
	
		<text transform="matrix(-0.1562 0.9877 -0.9877 -0.1562 443.5522 298.3062)" fill="#B1946E" font-family="'GillSans-SemiBold'" font-size="31.0524">•</text>
</g>
</svg>
