<?xml version="1.0" encoding="UTF-8"?>
<!DOCTYPE svg PUBLIC "-//W3C//DTD SVG 1.1//EN" "http://www.w3.org/Graphics/SVG/1.1/DTD/svg11.dtd">
<!-- Creator: CorelDRAW 2019 (64-Bit) -->
<svg xmlns="http://www.w3.org/2000/svg" xml:space="preserve" width="0.309374in" height="0.459524in" version="1.1" shape-rendering="geometricPrecision" text-rendering="geometricPrecision" image-rendering="optimizeQuality" fill-rule="evenodd" clip-rule="evenodd"
viewBox="0 0 11.14 16.55"
 xmlns:xlink="http://www.w3.org/1999/xlink"
 xmlns:xodm="http://www.corel.com/coreldraw/odm/2003">
 <g id="Layer_x0020_1">
  <metadata id="CorelCorpID_0Corel-Layer"/>
  <g id="_1707493757632">
   <path fill="#243E7A" fill-rule="nonzero" d="M5.57 9.55c-2.2,0 -3.98,-1.78 -3.98,-3.98 0,-2.2 1.78,-3.98 3.98,-3.98 2.2,0 3.98,1.78 3.98,3.98 0,2.2 -1.78,3.98 -3.98,3.98zm0 -9.55c-3.08,0 -5.57,2.49 -5.57,5.57 0,3.08 5.57,10.98 5.57,10.98 0,0 5.57,-7.9 5.57,-10.98 0,-3.08 -2.49,-5.57 -5.57,-5.57z"/>
   <g>
    <path fill="#243E7A" d="M6.06 6.73l0 -0.87c0,-0.09 0.05,-0.14 0.14,-0.14l0.75 0c0.09,0 0.14,0.05 0.14,0.14l0 0.87c0,0.07 -0.04,0.13 -0.11,0.13l-0.81 0c-0.07,0 -0.11,-0.06 -0.11,-0.13zm-1.26 -1.47c-0.14,0 -0.27,0.01 -0.4,-0.06 -0.12,-0.07 -0.12,-0.11 -0.17,-0.14l-0.05 0.05c-0.11,0.12 -0.24,0.15 -0.41,0.15l0 2.13c0,0.08 0.04,0.16 0.12,0.16l0.46 0 0 -1.69c0,-0.09 0.05,-0.14 0.14,-0.14l0.87 0c0.07,0 0.13,0.04 0.13,0.11l0 1.72 2.07 0c0.08,0 0.12,-0.08 0.12,-0.16l0 -2.13c-0.33,0 -0.39,-0.16 -0.46,-0.2 -0.04,0.03 -0.04,0.04 -0.07,0.08 -0.17,0.14 -0.28,0.13 -0.49,0.13 -0.18,0 -0.33,-0.11 -0.41,-0.21 -0.06,0.04 -0.18,0.21 -0.44,0.21 -0.19,0 -0.34,0.01 -0.5,-0.13 -0.03,-0.03 -0.05,-0.06 -0.09,-0.08 -0.07,0.11 -0.23,0.21 -0.41,0.21z"/>
    <path fill="#243E7A" d="M5.31 4.7c0,0.17 0.16,0.33 0.31,0.33 0.16,0 0.28,0.02 0.4,-0.1 0.12,-0.11 0.1,-0.26 0.08,-0.41l-0.14 -1.32 -0.49 0 -0.04 0.37c-0.02,0.13 -0.02,0.25 -0.04,0.38 -0.02,0.13 -0.02,0.25 -0.04,0.38l-0.04 0.38z"/>
    <path fill="#243E7A" d="M6.61 5.03c0.16,0 0.28,0.02 0.38,-0.09 0.12,-0.13 0.07,-0.26 0.03,-0.41 -0.02,-0.07 -0.03,-0.12 -0.05,-0.19 -0.04,-0.13 -0.07,-0.25 -0.11,-0.39l-0.19 -0.67c-0.03,-0.12 0.02,-0.08 -0.5,-0.08 0,0.09 0.01,0.16 0.02,0.26l0.14 1.27c0.02,0.15 0.09,0.3 0.26,0.3z"/>
    <path fill="#243E7A" d="M4.35 4.72c0,0.18 0.12,0.31 0.26,0.31 0.17,0 0.28,0.03 0.39,-0.09 0.05,-0.06 0.06,-0.1 0.08,-0.2l0.11 -1.02c0.01,-0.08 0.02,-0.18 0.03,-0.25 0.01,-0.09 0.02,-0.18 0.02,-0.26l-0.45 0c-0.04,0 -0.04,0.07 -0.07,0.17 -0.04,0.14 -0.37,1.3 -0.37,1.35z"/>
    <path fill="#243E7A" d="M3.41 4.74c0,0.16 0.14,0.29 0.27,0.29 0.16,0 0.25,0.02 0.36,-0.11 0.06,-0.08 0.3,-1.01 0.36,-1.22 0.02,-0.08 0.05,-0.17 0.07,-0.24 0.01,-0.05 0.02,-0.08 0.03,-0.13 0.01,-0.04 0.03,-0.08 0.03,-0.13 -0.23,0 -0.43,-0.05 -0.53,0.14l-0.51 1.15c-0.03,0.07 -0.09,0.18 -0.09,0.25z"/>
    <path fill="#243E7A" d="M7.59 5.03c0.13,0 0.25,0.02 0.35,-0.08 0.19,-0.19 0.01,-0.43 -0.1,-0.67 -0.07,-0.16 -0.13,-0.31 -0.21,-0.47 -0.02,-0.04 -0.03,-0.07 -0.05,-0.11l-0.1 -0.23c-0.14,-0.32 -0.17,-0.26 -0.58,-0.26 0.01,0.06 0.24,0.86 0.27,0.99 0.02,0.1 0.17,0.66 0.22,0.72 0.04,0.05 0.12,0.12 0.21,0.12z"/>
   </g>
  </g>
 </g>
</svg>
