<?xml version="1.0" encoding="UTF-8"?>
<!DOCTYPE svg PUBLIC "-//W3C//DTD SVG 1.1//EN" "http://www.w3.org/Graphics/SVG/1.1/DTD/svg11.dtd">
<!-- Creator: CorelDRAW 2019 (64-Bit) -->
<svg xmlns="http://www.w3.org/2000/svg" xml:space="preserve" width="0.309374in" height="0.459524in" version="1.1" shape-rendering="geometricPrecision" text-rendering="geometricPrecision" image-rendering="optimizeQuality" fill-rule="evenodd" clip-rule="evenodd"
viewBox="0 0 12.7 18.87"
 xmlns:xlink="http://www.w3.org/1999/xlink"
 xmlns:xodm="http://www.corel.com/coreldraw/odm/2003">
 <g id="Layer_x0020_1">
  <metadata id="CorelCorpID_0Corel-Layer"/>
  <g id="_1707493791040">
   <path fill="#2B2A29" fill-rule="nonzero" d="M6.35 10.89c-2.51,0 -4.54,-2.03 -4.54,-4.54 0,-2.51 2.03,-4.54 4.54,-4.54 2.51,0 4.54,2.03 4.54,4.54 0,2.51 -2.03,4.54 -4.54,4.54zm0 -10.89c-3.51,0 -6.35,2.84 -6.35,6.35 0,3.51 6.35,12.52 6.35,12.52 0,0 6.35,-9.01 6.35,-12.52 0,-3.51 -2.84,-6.35 -6.35,-6.35z"/>
   <g>
    <path fill="#2B2A29" d="M6.77 7.88l0 -0.99c0,-0.1 0.05,-0.16 0.16,-0.16l0.85 0c0.1,0 0.16,0.05 0.16,0.16l0 0.99c0,0.08 -0.05,0.15 -0.12,0.15l-0.93 0c-0.08,0 -0.12,-0.07 -0.12,-0.15zm-1.44 -1.67c-0.16,0 -0.31,0.01 -0.45,-0.07 -0.14,-0.08 -0.14,-0.13 -0.19,-0.16l-0.06 0.06c-0.12,0.13 -0.28,0.17 -0.46,0.17l0 2.43c0,0.09 0.04,0.18 0.13,0.18l0.53 0 0 -1.93c0,-0.1 0.05,-0.16 0.16,-0.16l0.99 0c0.08,0 0.15,0.04 0.15,0.12l0 1.97 2.36 0c0.09,0 0.13,-0.09 0.13,-0.18l0 -2.43c-0.38,0 -0.45,-0.18 -0.53,-0.23 -0.05,0.03 -0.04,0.05 -0.09,0.09 -0.2,0.16 -0.32,0.15 -0.56,0.15 -0.21,0 -0.38,-0.12 -0.46,-0.24 -0.07,0.05 -0.2,0.24 -0.5,0.24 -0.22,0 -0.39,0.01 -0.57,-0.15 -0.04,-0.03 -0.06,-0.07 -0.1,-0.09 -0.08,0.12 -0.26,0.24 -0.46,0.24z"/>
    <path fill="#2B2A29" d="M5.92 5.57c0,0.19 0.18,0.38 0.35,0.38 0.19,0 0.32,0.03 0.46,-0.11 0.13,-0.13 0.12,-0.3 0.09,-0.47l-0.16 -1.51 -0.56 0 -0.04 0.42c-0.02,0.15 -0.03,0.28 -0.05,0.43 -0.02,0.15 -0.03,0.28 -0.05,0.43l-0.05 0.43z"/>
    <path fill="#2B2A29" d="M7.41 5.95c0.19,0 0.32,0.03 0.44,-0.1 0.14,-0.15 0.08,-0.3 0.04,-0.47 -0.02,-0.08 -0.04,-0.14 -0.06,-0.22 -0.04,-0.15 -0.08,-0.29 -0.12,-0.44l-0.21 -0.76c-0.03,-0.14 0.03,-0.1 -0.56,-0.1 0,0.11 0.02,0.19 0.03,0.29l0.16 1.45c0.02,0.17 0.1,0.35 0.3,0.35z"/>
    <path fill="#2B2A29" d="M4.83 5.6c0,0.2 0.13,0.35 0.29,0.35 0.2,0 0.32,0.03 0.44,-0.11 0.06,-0.07 0.07,-0.12 0.09,-0.23l0.13 -1.17c0.01,-0.09 0.02,-0.2 0.03,-0.28 0.01,-0.1 0.03,-0.2 0.03,-0.3l-0.51 0c-0.05,0 -0.05,0.08 -0.08,0.19 -0.04,0.16 -0.42,1.49 -0.42,1.54z"/>
    <path fill="#2B2A29" d="M3.76 5.62c0,0.18 0.16,0.33 0.31,0.33 0.18,0 0.29,0.02 0.41,-0.13 0.07,-0.09 0.34,-1.15 0.41,-1.4 0.03,-0.1 0.05,-0.19 0.08,-0.28 0.02,-0.05 0.03,-0.09 0.04,-0.14 0.01,-0.05 0.03,-0.09 0.04,-0.15 -0.26,0 -0.49,-0.06 -0.6,0.16l-0.58 1.31c-0.04,0.08 -0.1,0.21 -0.1,0.29z"/>
    <path fill="#2B2A29" d="M8.52 5.95c0.15,0 0.28,0.02 0.39,-0.09 0.21,-0.21 0.01,-0.49 -0.12,-0.77 -0.08,-0.18 -0.15,-0.35 -0.24,-0.53 -0.02,-0.04 -0.04,-0.08 -0.06,-0.13l-0.12 -0.26c-0.15,-0.36 -0.19,-0.3 -0.66,-0.3 0.01,0.07 0.27,0.98 0.31,1.13 0.03,0.11 0.19,0.75 0.25,0.83 0.04,0.06 0.13,0.13 0.23,0.13z"/>
   </g>
  </g>
 </g>
</svg>
