<?xml version="1.0" encoding="UTF-8"?>
<!DOCTYPE svg PUBLIC "-//W3C//DTD SVG 1.1//EN" "http://www.w3.org/Graphics/SVG/1.1/DTD/svg11.dtd">
<!-- Creator: CorelDRAW 2019 (64-Bit) -->
<svg xmlns="http://www.w3.org/2000/svg" xml:space="preserve" width="0.309374in" height="0.459524in" version="1.1" shape-rendering="geometricPrecision" text-rendering="geometricPrecision" image-rendering="optimizeQuality" fill-rule="evenodd" clip-rule="evenodd"
viewBox="0 0 14.77 21.94"
 xmlns:xlink="http://www.w3.org/1999/xlink"
 xmlns:xodm="http://www.corel.com/coreldraw/odm/2003">
 <g id="Layer_x0020_1">
  <metadata id="CorelCorpID_0Corel-Layer"/>
  <g id="_1707497575584">
   <path fill="#D7B56D" fill-rule="nonzero" d="M7.39 12.67c-2.92,0 -5.28,-2.37 -5.28,-5.28 0,-2.92 2.37,-5.28 5.28,-5.28 2.92,0 5.28,2.37 5.28,5.28 0,2.92 -2.36,5.28 -5.28,5.28zm0 -12.67c-4.08,0 -7.39,3.31 -7.39,7.39 0,4.08 7.39,14.56 7.39,14.56 0,0 7.39,-10.48 7.39,-14.56 0,-4.08 -3.31,-7.39 -7.39,-7.39z"/>
   <g>
    <path fill="#D7B56D" d="M8.22 9.29l0 -1.15c0,-0.12 0.06,-0.18 0.18,-0.18l0.99 0c0.12,0 0.18,0.06 0.18,0.18l0 1.15c0,0.09 -0.05,0.17 -0.14,0.17l-1.08 0c-0.09,0 -0.14,-0.08 -0.14,-0.17zm-1.68 -1.95c-0.19,0 -0.36,0.01 -0.53,-0.08 -0.16,-0.09 -0.16,-0.15 -0.22,-0.19l-0.07 0.07c-0.14,0.15 -0.32,0.2 -0.54,0.2l0 2.83c0,0.11 0.05,0.21 0.16,0.21l0.61 0 0 -2.24c0,-0.12 0.06,-0.18 0.18,-0.18l1.15 0c0.09,0 0.17,0.05 0.17,0.14l0 2.29 2.74 0c0.11,0 0.16,-0.1 0.16,-0.21l0 -2.83c-0.44,0 -0.52,-0.21 -0.61,-0.27 -0.06,0.04 -0.05,0.06 -0.1,0.1 -0.23,0.19 -0.37,0.17 -0.65,0.17 -0.24,0 -0.44,-0.14 -0.54,-0.28 -0.09,0.06 -0.24,0.28 -0.58,0.28 -0.25,0 -0.45,0.01 -0.66,-0.17 -0.05,-0.04 -0.07,-0.08 -0.12,-0.11 -0.1,0.14 -0.3,0.28 -0.54,0.28z"/>
    <path fill="#D7B56D" d="M7.23 6.61c0,0.22 0.21,0.44 0.41,0.44 0.22,0 0.37,0.03 0.54,-0.13 0.15,-0.15 0.14,-0.35 0.11,-0.54l-0.19 -1.76 -0.65 0 -0.05 0.49c-0.02,0.17 -0.03,0.33 -0.05,0.5 -0.02,0.17 -0.03,0.33 -0.05,0.5l-0.05 0.5z"/>
    <path fill="#D7B56D" d="M8.96 7.05c0.22,0 0.37,0.03 0.51,-0.12 0.16,-0.17 0.1,-0.35 0.04,-0.55 -0.03,-0.09 -0.04,-0.16 -0.07,-0.26 -0.05,-0.18 -0.09,-0.34 -0.14,-0.51l-0.25 -0.89c-0.04,-0.16 0.03,-0.11 -0.66,-0.11 0,0.12 0.02,0.22 0.03,0.34l0.19 1.69c0.03,0.2 0.12,0.4 0.35,0.4z"/>
    <path fill="#D7B56D" d="M5.96 6.63c0,0.24 0.15,0.41 0.34,0.41 0.23,0 0.38,0.03 0.51,-0.12 0.07,-0.08 0.08,-0.13 0.1,-0.27l0.15 -1.36c0.01,-0.1 0.03,-0.23 0.04,-0.33 0.01,-0.11 0.03,-0.24 0.03,-0.35l-0.6 0c-0.05,0 -0.06,0.1 -0.09,0.22 -0.05,0.18 -0.49,1.73 -0.49,1.8z"/>
    <path fill="#D7B56D" d="M4.71 6.66c0,0.21 0.18,0.38 0.36,0.38 0.21,0 0.34,0.03 0.48,-0.15 0.08,-0.1 0.4,-1.34 0.48,-1.62 0.03,-0.11 0.06,-0.22 0.09,-0.32 0.02,-0.06 0.03,-0.11 0.05,-0.17 0.01,-0.06 0.04,-0.11 0.04,-0.17 -0.3,0 -0.57,-0.07 -0.7,0.18l-0.68 1.53c-0.04,0.09 -0.12,0.24 -0.12,0.34z"/>
    <path fill="#D7B56D" d="M10.25 7.05c0.17,0 0.33,0.02 0.46,-0.11 0.25,-0.25 0.01,-0.56 -0.14,-0.89 -0.09,-0.21 -0.18,-0.41 -0.28,-0.62 -0.02,-0.05 -0.04,-0.1 -0.07,-0.15l-0.13 -0.31c-0.18,-0.42 -0.22,-0.35 -0.77,-0.35 0.01,0.08 0.32,1.14 0.36,1.32 0.03,0.13 0.23,0.87 0.29,0.96 0.05,0.07 0.16,0.15 0.27,0.15z"/>
   </g>
  </g>
 </g>
</svg>
