<?xml version="1.0" encoding="UTF-8"?>
<!DOCTYPE svg PUBLIC "-//W3C//DTD SVG 1.1//EN" "http://www.w3.org/Graphics/SVG/1.1/DTD/svg11.dtd">
<!-- Creator: CorelDRAW 2019 (64-Bit) -->
<svg xmlns="http://www.w3.org/2000/svg" xml:space="preserve" width="0.324567in" height="0.482094in" version="1.1" shape-rendering="geometricPrecision" text-rendering="geometricPrecision" image-rendering="optimizeQuality" fill-rule="evenodd" clip-rule="evenodd"
viewBox="0 0 24.6 36.54"
 xmlns:xlink="http://www.w3.org/1999/xlink"
 xmlns:xodm="http://www.corel.com/coreldraw/odm/2003">
 <g id="Layer_x0020_1">
  <metadata id="CorelCorpID_0Corel-Layer"/>
  <g id="_1707493115424">
   <path fill="#AE4A84" fill-rule="nonzero" d="M12.3 21.1c-4.86,0 -8.8,-3.94 -8.8,-8.8 0,-4.86 3.94,-8.8 8.8,-8.8 4.86,0 8.8,3.94 8.8,8.8 0,4.86 -3.94,8.8 -8.8,8.8zm0 -21.1c-6.79,0 -12.3,5.51 -12.3,12.3 0,6.79 12.3,24.24 12.3,24.24 0,0 12.3,-17.45 12.3,-24.24 0,-6.79 -5.51,-12.3 -12.3,-12.3z"/>
   <g>
    <path fill="#AE4A84" d="M12 11.12c0,-0.28 -0.04,-0.52 0.11,-0.68 0.15,-0.16 0.42,-0.17 0.58,-0.01 0.16,0.16 0.12,0.41 0.12,0.69 0,0.56 -0.81,0.56 -0.81,0zm1.65 -0.06c0,-0.31 -0.04,-0.67 0.34,-0.74 0.1,-0.02 0.24,0.01 0.31,0.07 0.22,0.18 0.16,0.41 0.16,0.81 0,0.39 -0.81,0.57 -0.81,-0.14zm-3.3 0.14c0,-0.41 -0.06,-0.61 0.15,-0.8 0.19,-0.16 0.67,-0.12 0.67,0.39 0,0.31 0.04,0.67 -0.34,0.74 -0.26,0.05 -0.47,-0.18 -0.47,-0.34zm1.65 -2.11l0 -0.45c0,-0.52 0.81,-0.51 0.81,0l0 0.45c0,0.51 -0.81,0.51 -0.81,0zm1.65 -0.06c0,-0.2 -0.03,-0.49 0.09,-0.63 0.26,-0.3 0.72,-0.12 0.72,0.22l0 0.48c0,0.46 -0.81,0.54 -0.81,-0.08zm-2.91 0.45c-0.19,0 -0.39,-0.17 -0.39,-0.37 0,-0.48 -0.09,-0.85 0.47,-0.85 0.09,0 0.2,0.09 0.25,0.14 0.13,0.14 0.1,0.42 0.1,0.64 0,0.26 -0.17,0.45 -0.43,0.45zm-2.06 -2.09l0 7.89 -0.45 0c-0.52,0 -0.5,0.83 0.02,0.83l2.09 0 0 -2.97c0,-0.16 0.18,-0.35 0.45,-0.35l3.22 0c0.26,0 0.45,0.19 0.45,0.35l0 2.97 2.09 0c0.52,0 0.54,-0.83 0.02,-0.83l-0.45 0 0 -7.89c0,-0.21 -0.2,-0.39 -0.41,-0.39l-6.63 0c-0.21,0 -0.41,0.18 -0.41,0.39z"/>
    <polygon fill="#AE4A84" points="11.17,16.1 13.65,16.1 13.65,13.6 11.17,13.6 "/>
   </g>
  </g>
 </g>
</svg>
