<?xml version="1.0" encoding="UTF-8"?>
<!DOCTYPE svg PUBLIC "-//W3C//DTD SVG 1.1//EN" "http://www.w3.org/Graphics/SVG/1.1/DTD/svg11.dtd">
<!-- Creator: CorelDRAW 2019 (64-Bit) -->
<svg xmlns="http://www.w3.org/2000/svg" xml:space="preserve" width="0.327173in" height="0.485961in" version="1.1" shape-rendering="geometricPrecision" text-rendering="geometricPrecision" image-rendering="optimizeQuality" fill-rule="evenodd" clip-rule="evenodd"
viewBox="0 0 19.26 28.6"
 xmlns:xlink="http://www.w3.org/1999/xlink"
 xmlns:xodm="http://www.corel.com/coreldraw/odm/2003">
 <g id="Layer_x0020_1">
  <metadata id="CorelCorpID_0Corel-Layer"/>
  <g id="_1707497617152">
   <path fill="#E51A4B" fill-rule="nonzero" d="M9.63 16.51c-3.8,0 -6.89,-3.08 -6.89,-6.89 0,-3.8 3.08,-6.89 6.89,-6.89 3.8,0 6.89,3.08 6.89,6.89 0,3.8 -3.08,6.89 -6.89,6.89zm0 -16.51c-5.32,0 -9.63,4.31 -9.63,9.63 0,5.32 9.63,18.97 9.63,18.97 0,0 9.63,-13.66 9.63,-18.97 0,-5.32 -4.31,-9.63 -9.63,-9.63z"/>
   <g>
    <path fill="#E51A4B" d="M6.36 7.82l0 4.26c0,0.14 0.13,0.27 0.27,0.27l0.6 0 0 -3.46c0,-0.18 0.12,-0.31 0.3,-0.31l4.63 0c0.18,0 0.3,0.13 0.3,0.31l0 3.46 0.6 0c0.14,0 0.27,-0.13 0.27,-0.27l0 -4.26c-0,-0.12 -0.25,-0.26 -0.38,-0.35l-1.85 -1.27c-0.04,-0.03 -0.07,-0.05 -0.11,-0.08l-0.87 -0.6c-0.12,-0.08 -0.18,-0.12 -0.24,-0.14l-0.07 0c-0.05,0.01 -0.12,0.06 -0.23,0.13l-3.05 2.1c-0.07,0.04 -0.17,0.11 -0.17,0.21z"/>
    <path fill="#E51A4B" d="M7.96 11.05l0 1.14c0,0.09 0.05,0.16 0.14,0.16l1.48 0c0.09,0 0.14,-0.09 0.14,-0.18l0 -1.08c0,-0.11 -0.04,-0.2 -0.15,-0.2l-0.52 0c0,0.18 0.04,0.44 -0.23,0.44 -0.07,0 -0.19,-0.07 -0.19,-0.2l0 -0.23 -0.52 0c-0.08,0 -0.15,0.07 -0.15,0.15z"/>
    <path fill="#E51A4B" d="M9.99 11.1l0 1.08c0,0.09 0.05,0.18 0.14,0.18l1.48 0c0.09,0 0.14,-0.08 0.14,-0.16l0 -1.14c0,-0.08 -0.07,-0.15 -0.15,-0.15l-0.52 0c0,0.14 0.02,0.29 -0.05,0.37 -0.12,0.13 -0.37,0.06 -0.37,-0.15l0 -0.22 -0.52 0c-0.11,0 -0.15,0.1 -0.15,0.2z"/>
    <path fill="#E51A4B" d="M8.98 9.29l0 1.18c0,0.07 0.06,0.14 0.14,0.14l1.47 0c0.08,0 0.14,-0.06 0.14,-0.14l0 -1.18c0,-0.09 -0.08,-0.14 -0.16,-0.14l-0.49 0c0,0.15 0.04,0.44 -0.22,0.44 -0.25,0 -0.22,-0.28 -0.22,-0.44l-0.49 0c-0.09,0 -0.16,0.05 -0.16,0.14z"/>
   </g>
  </g>
 </g>
</svg>
